<mxfile host="65bd71144e">
    <diagram name="ページ1" id="16POWw2BMLzCoKCeQJE8">
        <mxGraphModel dx="902" dy="549" grid="1" gridSize="10" guides="1" tooltips="1" connect="1" arrows="1" fold="1" page="1" pageScale="1" pageWidth="827" pageHeight="1169" math="0" shadow="0">
            <root>
                <mxCell id="0"/>
                <mxCell id="1" parent="0"/>
                <mxCell id="2" value="&lt;h1&gt;Level1信頼関係&lt;/h1&gt;&lt;p&gt;まずは信頼関係が構築されていること&lt;/p&gt;" style="text;html=1;strokeColor=none;fillColor=none;spacing=5;spacingTop=-20;whiteSpace=wrap;overflow=hidden;rounded=0;" parent="1" vertex="1">
                    <mxGeometry x="40" y="110" width="190" height="120" as="geometry"/>
                </mxCell>
                <mxCell id="5" value="最終目標" style="swimlane;whiteSpace=wrap;html=1;fillColor=#FFFFFF;" parent="1" vertex="1">
                    <mxGeometry x="360" y="130" width="200" height="130" as="geometry"/>
                </mxCell>
                <mxCell id="4" value="コントロールする&#10;or&#10;動いてもらう" style="rounded=1;fillColor=#003333;strokeColor=none;shadow=0;gradientColor=none;fontStyle=1;fontColor=#FFFFFF;fontSize=14;" parent="5" vertex="1">
                    <mxGeometry x="28" y="40" width="144" height="70" as="geometry"/>
                </mxCell>
                <mxCell id="6" value="中間目標プランA" style="swimlane;whiteSpace=wrap;html=1;fillColor=#FFFFFF;" parent="1" vertex="1">
                    <mxGeometry x="35" y="340" width="200" height="220" as="geometry"/>
                </mxCell>
                <mxCell id="16" style="edgeStyle=none;html=1;" parent="6" source="10" target="3" edge="1">
                    <mxGeometry relative="1" as="geometry"/>
                </mxCell>
                <mxCell id="10" value="好意" style="rounded=1;fillColor=#004D4D;strokeColor=none;shadow=0;gradientColor=none;fontStyle=1;fontColor=#FFFFFF;fontSize=14;" parent="6" vertex="1">
                    <mxGeometry x="22" y="130" width="144" height="70" as="geometry"/>
                </mxCell>
                <mxCell id="3" value="返報性の原理" style="rounded=1;fillColor=#004D4D;strokeColor=none;shadow=0;gradientColor=none;fontStyle=1;fontColor=#FFFFFF;fontSize=14;" parent="6" vertex="1">
                    <mxGeometry x="22" y="40" width="144" height="70" as="geometry"/>
                </mxCell>
                <mxCell id="8" value="中間目標プランB" style="swimlane;whiteSpace=wrap;html=1;fillColor=#FFFFFF;" parent="1" vertex="1">
                    <mxGeometry x="252" y="340" width="200" height="130" as="geometry"/>
                </mxCell>
                <mxCell id="9" value="社会的証明の原理&#10;多数の原理" style="rounded=1;fillColor=#004D4D;strokeColor=none;shadow=0;gradientColor=none;fontStyle=1;fontColor=#FFFFFF;fontSize=14;" parent="8" vertex="1">
                    <mxGeometry x="22" y="40" width="144" height="70" as="geometry"/>
                </mxCell>
                <mxCell id="11" value="ボツプラン" style="swimlane;whiteSpace=wrap;html=1;fillColor=#FFFFFF;" parent="1" vertex="1">
                    <mxGeometry x="930" y="340" width="200" height="280" as="geometry"/>
                </mxCell>
                <mxCell id="12" value="権威" style="rounded=1;fillColor=#004D4D;strokeColor=none;shadow=0;gradientColor=none;fontStyle=1;fontColor=#FFFFFF;fontSize=14;" parent="11" vertex="1">
                    <mxGeometry x="22" y="40" width="144" height="70" as="geometry"/>
                </mxCell>
                <mxCell id="30" value="誰でもできるプランではない &amp;amp; 支配によるコントロールは脆いためボツとする&lt;br&gt;" style="text;html=1;strokeColor=none;fillColor=none;align=left;verticalAlign=middle;whiteSpace=wrap;rounded=0;" vertex="1" parent="11">
                    <mxGeometry x="31" y="120" width="138" height="50" as="geometry"/>
                </mxCell>
                <mxCell id="13" value="中間目標プランD" style="swimlane;whiteSpace=wrap;html=1;fillColor=#FFFFFF;" parent="1" vertex="1">
                    <mxGeometry x="252" y="490" width="200" height="130" as="geometry"/>
                </mxCell>
                <mxCell id="14" value="希少性の原理" style="rounded=1;fillColor=#004D4D;strokeColor=none;shadow=0;gradientColor=none;fontStyle=1;fontColor=#FFFFFF;fontSize=14;" parent="13" vertex="1">
                    <mxGeometry x="22" y="40" width="144" height="70" as="geometry"/>
                </mxCell>
                <mxCell id="17" value="" style="swimlane;whiteSpace=wrap;html=1;fillColor=#FFFFFF;" parent="1" vertex="1">
                    <mxGeometry x="470" y="340" width="200" height="280" as="geometry"/>
                </mxCell>
                <mxCell id="18" value="努力" style="rounded=1;fillColor=#004D4D;strokeColor=none;shadow=0;gradientColor=none;fontStyle=1;fontColor=#FFFFFF;fontSize=14;" parent="17" vertex="1">
                    <mxGeometry x="22" y="40" width="144" height="70" as="geometry"/>
                </mxCell>
                <mxCell id="29" value="人間の涙ぐましい努力に対して、それが報われなかった時の同情を誘うプラン" style="text;html=1;strokeColor=none;fillColor=none;align=left;verticalAlign=middle;whiteSpace=wrap;rounded=0;" parent="17" vertex="1">
                    <mxGeometry x="22" y="120" width="138" height="50" as="geometry"/>
                </mxCell>
            </root>
        </mxGraphModel>
    </diagram>
</mxfile>